<svg width="1656" height="616" viewBox="0 0 1656 616" fill="none" xmlns="http://www.w3.org/2000/svg">
<rect width="1656" height="616" fill="#F5F4F4"/>
<rect x="150.427" y="146.427" width="323.147" height="323.147" rx="28.7733" fill="#0D0D0D"/>
<rect x="150.427" y="146.427" width="323.147" height="323.147" rx="28.7733" stroke="#FFC034" stroke-width="8.85333"/>
<path d="M218.331 316.942L187.5 346.893L247.695 404.738L333.729 282.294L370.433 324.283L436.206 210.06L370.433 287.285L333.435 245.002L247.695 346.893L218.331 316.942Z" fill="#FFC034"/>
<path d="M436.5 209.556L432.152 226.697L421.197 218.417L436.5 209.556Z" fill="#FFC034"/>
<path d="M572.88 408.76C562.427 408.76 554.32 406.733 548.56 402.68C543.013 398.627 540.24 393.187 540.24 386.36C540.24 380.387 542.267 375.8 546.32 372.6C550.587 369.4 555.493 367.8 561.04 367.8C566.587 367.8 571.493 369.08 575.76 371.64C580.027 373.987 583.973 378.147 587.6 384.12L593.36 394.04C594.427 395.533 595.707 396.28 597.2 396.28C598.907 396.28 600.08 395.32 600.72 393.4C602 389.133 602.853 382.947 603.28 374.84C603.92 366.52 604.24 356.493 604.24 344.76C604.24 331.32 603.92 314.04 603.28 292.92C602.64 271.8 602 245.773 601.36 214.84C601.36 205.667 597.947 199.907 591.12 197.56L583.76 195V191.8H667.6V195L660.56 197.56C656.72 199.053 654.053 201.08 652.56 203.64C651.28 205.987 650.64 209.4 650.64 213.88V277.24C650.64 298.147 649.68 315.427 647.76 329.08C645.84 342.733 642.747 354.573 638.48 364.6C633.147 378.893 624.4 389.88 612.24 397.56C600.293 405.027 587.173 408.76 572.88 408.76ZM753.485 407.8C737.272 407.8 723.192 404.493 711.245 397.88C699.298 391.053 690.018 381.453 683.405 369.08C677.005 356.707 673.805 342.2 673.805 325.56C673.805 308.92 677.218 294.52 684.045 282.36C691.085 270.2 700.578 260.813 712.525 254.2C724.685 247.587 738.338 244.28 753.485 244.28C768.632 244.28 782.178 247.587 794.125 254.2C806.072 260.6 815.458 269.88 822.285 282.04C829.325 294.2 832.845 308.707 832.845 325.56C832.845 342.413 829.538 357.027 822.925 369.4C816.525 381.56 807.352 391.053 795.405 397.88C783.672 404.493 769.698 407.8 753.485 407.8ZM753.485 401.4C760.952 401.4 766.925 399.267 771.405 395C775.885 390.733 779.085 383.16 781.005 372.28C783.138 361.4 784.205 346.04 784.205 326.2C784.205 306.147 783.138 290.68 781.005 279.8C779.085 268.92 775.885 261.347 771.405 257.08C766.925 252.813 760.952 250.68 753.485 250.68C746.018 250.68 739.938 252.813 735.245 257.08C730.765 261.347 727.458 268.92 725.325 279.8C723.405 290.68 722.445 306.147 722.445 326.2C722.445 346.04 723.405 361.4 725.325 372.28C727.458 383.16 730.765 390.733 735.245 395C739.938 399.267 746.018 401.4 753.485 401.4ZM903.57 407.8C895.25 407.8 887.57 406.2 880.53 403C873.703 399.8 868.263 394.68 864.21 387.64C860.37 380.387 858.557 370.893 858.77 359.16L859.73 276.92C859.73 272.013 858.877 268.493 857.17 266.36C855.463 264.227 852.797 262.733 849.17 261.88L845.33 260.6V257.4L902.61 246.2L905.81 249.4L904.21 294.84V371.96C904.21 378.787 906.13 383.8 909.97 387C914.023 390.2 919.037 391.8 925.01 391.8C930.983 391.8 936.317 390.947 941.01 389.24C945.703 387.533 950.397 384.973 955.09 381.56L956.37 277.24C956.37 272.333 955.623 268.92 954.13 267C952.637 264.867 949.863 263.373 945.81 262.52L942.61 261.56V258.36L998.61 246.2L1001.81 249.4L1000.85 294.84V381.56C1000.85 386.253 1001.49 389.88 1002.77 392.44C1004.05 395 1006.82 397.133 1011.09 398.84L1014.29 399.8V403L958.29 406.2L955.41 387.32C948.37 393.08 940.69 397.987 932.37 402.04C924.263 405.88 914.663 407.8 903.57 407.8ZM1027.21 403V399.8L1032.01 398.52C1036.28 397.24 1039.16 395.32 1040.65 392.76C1042.36 390.2 1043.21 386.893 1043.21 382.84V282.68C1043.21 277.987 1042.36 274.573 1040.65 272.44C1039.16 270.093 1036.28 268.493 1032.01 267.64L1027.21 266.36V263.16L1082.25 244.6L1085.45 247.8L1088.33 275.32V277.88C1091.32 271.907 1095.16 266.467 1099.85 261.56C1104.76 256.44 1110.09 252.28 1115.85 249.08C1121.83 245.88 1127.69 244.28 1133.45 244.28C1141.56 244.28 1147.75 246.52 1152.01 251C1156.28 255.48 1158.41 261.133 1158.41 267.96C1158.41 275.213 1156.28 280.867 1152.01 284.92C1147.96 288.76 1143.05 290.68 1137.29 290.68C1128.33 290.68 1120.44 286.2 1113.61 277.24L1112.97 276.6C1110.84 273.613 1108.39 272.013 1105.61 271.8C1102.84 271.373 1100.28 272.653 1097.93 275.64C1095.8 277.56 1093.99 279.907 1092.49 282.68C1091.21 285.24 1089.93 288.227 1088.65 291.64V380.92C1088.65 389.453 1092.39 394.787 1099.85 396.92L1110.09 399.8V403H1027.21ZM1168.46 403V399.8L1172.94 398.52C1180.41 396.387 1184.14 391.16 1184.14 382.84V282.68C1184.14 277.987 1183.4 274.573 1181.9 272.44C1180.41 270.093 1177.53 268.493 1173.26 267.64L1168.46 266.36V263.16L1223.18 244.6L1226.38 247.8L1228.94 267C1236.41 260.387 1244.84 254.947 1254.22 250.68C1263.61 246.413 1272.89 244.28 1282.06 244.28C1296.14 244.28 1306.92 248.12 1314.38 255.8C1322.06 263.48 1325.9 275.213 1325.9 291V383.16C1325.9 391.48 1329.96 396.707 1338.06 398.84L1340.94 399.8V403H1265.42V399.8L1269.58 398.52C1277.05 396.173 1280.78 390.947 1280.78 382.84V280.76C1280.78 267.107 1273.96 260.28 1260.3 260.28C1250.92 260.28 1240.68 264.973 1229.58 274.36V383.16C1229.58 391.48 1233.32 396.707 1240.78 398.84L1243.66 399.8V403H1168.46ZM1398.31 407.8C1385.93 407.8 1375.48 404.28 1366.95 397.24C1358.63 390.2 1354.47 380.067 1354.47 366.84C1354.47 356.813 1359.59 347.64 1369.83 339.32C1380.07 330.787 1396.17 324.387 1418.15 320.12C1421.56 319.48 1425.4 318.84 1429.67 318.2C1433.93 317.347 1438.41 316.493 1443.11 315.64V290.36C1443.11 275.853 1441.29 265.72 1437.67 259.96C1434.25 253.987 1428.81 251 1421.35 251C1416.23 251 1412.17 252.707 1409.19 256.12C1406.2 259.32 1404.28 264.973 1403.43 273.08L1402.79 276.6C1402.36 285.773 1400.12 292.493 1396.07 296.76C1392.01 301.027 1387 303.16 1381.03 303.16C1375.48 303.16 1370.89 301.453 1367.27 298.04C1363.64 294.627 1361.83 290.04 1361.83 284.28C1361.83 275.533 1364.81 268.173 1370.79 262.2C1376.97 256.227 1385.08 251.747 1395.11 248.76C1405.13 245.773 1416.01 244.28 1427.75 244.28C1446.73 244.28 1461.35 248.973 1471.59 258.36C1482.04 267.533 1487.27 282.573 1487.27 303.48V374.2C1487.27 383.8 1491.75 388.6 1500.71 388.6H1507.75L1510.63 391.16C1506.57 396.28 1502.09 400.227 1497.19 403C1492.49 405.773 1485.77 407.16 1477.03 407.16C1467.64 407.16 1460.17 405.027 1454.63 400.76C1449.29 396.28 1445.77 390.413 1444.07 383.16C1437.67 389.987 1431.05 395.853 1424.23 400.76C1417.61 405.453 1408.97 407.8 1398.31 407.8ZM1417.83 388.28C1422.09 388.28 1426.04 387.32 1429.67 385.4C1433.51 383.267 1437.99 380.067 1443.11 375.8V322.04C1440.97 322.467 1438.84 322.893 1436.71 323.32C1434.57 323.747 1432.12 324.173 1429.35 324.6C1419.53 327.16 1411.64 331.533 1405.67 337.72C1399.91 343.693 1397.03 351.8 1397.03 362.04C1397.03 370.787 1399.05 377.4 1403.11 381.88C1407.16 386.147 1412.07 388.28 1417.83 388.28Z" fill="#0D0D0D"/>
</svg>
