<svg width="1660" height="616" viewBox="0 0 1660 616" fill="none" xmlns="http://www.w3.org/2000/svg">
<rect width="1660" height="616" fill="black"/>
<rect x="152.427" y="146.427" width="323.147" height="323.147" rx="28.7733" fill="#0D0D0D"/>
<rect x="152.427" y="146.427" width="323.147" height="323.147" rx="28.7733" stroke="#FFC034" stroke-width="8.85333"/>
<path d="M220.331 316.942L189.5 346.893L249.695 404.738L335.729 282.293L372.433 324.283L438.206 210.06L372.433 287.285L335.435 245.002L249.695 346.893L220.331 316.942Z" fill="#FFC034"/>
<path d="M438.5 209.556L434.152 226.697L423.197 218.417L438.5 209.556Z" fill="#FFC034"/>
<path d="M574.88 408.76C564.427 408.76 556.32 406.733 550.56 402.68C545.013 398.627 542.24 393.187 542.24 386.36C542.24 380.387 544.267 375.8 548.32 372.6C552.587 369.4 557.493 367.8 563.04 367.8C568.587 367.8 573.493 369.08 577.76 371.64C582.027 373.987 585.973 378.147 589.6 384.12L595.36 394.04C596.427 395.533 597.707 396.28 599.2 396.28C600.907 396.28 602.08 395.32 602.72 393.4C604 389.133 604.853 382.947 605.28 374.84C605.92 366.52 606.24 356.493 606.24 344.76C606.24 331.32 605.92 314.04 605.28 292.92C604.64 271.8 604 245.773 603.36 214.84C603.36 205.667 599.947 199.907 593.12 197.56L585.76 195V191.8H669.6V195L662.56 197.56C658.72 199.053 656.053 201.08 654.56 203.64C653.28 205.987 652.64 209.4 652.64 213.88V277.24C652.64 298.147 651.68 315.427 649.76 329.08C647.84 342.733 644.747 354.573 640.48 364.6C635.147 378.893 626.4 389.88 614.24 397.56C602.293 405.027 589.173 408.76 574.88 408.76ZM755.485 407.8C739.272 407.8 725.192 404.493 713.245 397.88C701.298 391.053 692.018 381.453 685.405 369.08C679.005 356.707 675.805 342.2 675.805 325.56C675.805 308.92 679.218 294.52 686.045 282.36C693.085 270.2 702.578 260.813 714.525 254.2C726.685 247.587 740.338 244.28 755.485 244.28C770.632 244.28 784.178 247.587 796.125 254.2C808.072 260.6 817.458 269.88 824.285 282.04C831.325 294.2 834.845 308.707 834.845 325.56C834.845 342.413 831.538 357.027 824.925 369.4C818.525 381.56 809.352 391.053 797.405 397.88C785.672 404.493 771.698 407.8 755.485 407.8ZM755.485 401.4C762.952 401.4 768.925 399.267 773.405 395C777.885 390.733 781.085 383.16 783.005 372.28C785.138 361.4 786.205 346.04 786.205 326.2C786.205 306.147 785.138 290.68 783.005 279.8C781.085 268.92 777.885 261.347 773.405 257.08C768.925 252.813 762.952 250.68 755.485 250.68C748.018 250.68 741.938 252.813 737.245 257.08C732.765 261.347 729.458 268.92 727.325 279.8C725.405 290.68 724.445 306.147 724.445 326.2C724.445 346.04 725.405 361.4 727.325 372.28C729.458 383.16 732.765 390.733 737.245 395C741.938 399.267 748.018 401.4 755.485 401.4ZM905.57 407.8C897.25 407.8 889.57 406.2 882.53 403C875.703 399.8 870.263 394.68 866.21 387.64C862.37 380.387 860.557 370.893 860.77 359.16L861.73 276.92C861.73 272.013 860.877 268.493 859.17 266.36C857.463 264.227 854.797 262.733 851.17 261.88L847.33 260.6V257.4L904.61 246.2L907.81 249.4L906.21 294.84V371.96C906.21 378.787 908.13 383.8 911.97 387C916.023 390.2 921.037 391.8 927.01 391.8C932.983 391.8 938.317 390.947 943.01 389.24C947.703 387.533 952.397 384.973 957.09 381.56L958.37 277.24C958.37 272.333 957.623 268.92 956.13 267C954.637 264.867 951.863 263.373 947.81 262.52L944.61 261.56V258.36L1000.61 246.2L1003.81 249.4L1002.85 294.84V381.56C1002.85 386.253 1003.49 389.88 1004.77 392.44C1006.05 395 1008.82 397.133 1013.09 398.84L1016.29 399.8V403L960.29 406.2L957.41 387.32C950.37 393.08 942.69 397.987 934.37 402.04C926.263 405.88 916.663 407.8 905.57 407.8ZM1029.21 403V399.8L1034.01 398.52C1038.28 397.24 1041.16 395.32 1042.65 392.76C1044.36 390.2 1045.21 386.893 1045.21 382.84V282.68C1045.21 277.987 1044.36 274.573 1042.65 272.44C1041.16 270.093 1038.28 268.493 1034.01 267.64L1029.21 266.36V263.16L1084.25 244.6L1087.45 247.8L1090.33 275.32V277.88C1093.32 271.907 1097.16 266.467 1101.85 261.56C1106.76 256.44 1112.09 252.28 1117.85 249.08C1123.83 245.88 1129.69 244.28 1135.45 244.28C1143.56 244.28 1149.75 246.52 1154.01 251C1158.28 255.48 1160.41 261.133 1160.41 267.96C1160.41 275.213 1158.28 280.867 1154.01 284.92C1149.96 288.76 1145.05 290.68 1139.29 290.68C1130.33 290.68 1122.44 286.2 1115.61 277.24L1114.97 276.6C1112.84 273.613 1110.39 272.013 1107.61 271.8C1104.84 271.373 1102.28 272.653 1099.93 275.64C1097.8 277.56 1095.99 279.907 1094.49 282.68C1093.21 285.24 1091.93 288.227 1090.65 291.64V380.92C1090.65 389.453 1094.39 394.787 1101.85 396.92L1112.09 399.8V403H1029.21ZM1170.46 403V399.8L1174.94 398.52C1182.41 396.387 1186.14 391.16 1186.14 382.84V282.68C1186.14 277.987 1185.4 274.573 1183.9 272.44C1182.41 270.093 1179.53 268.493 1175.26 267.64L1170.46 266.36V263.16L1225.18 244.6L1228.38 247.8L1230.94 267C1238.41 260.387 1246.84 254.947 1256.22 250.68C1265.61 246.413 1274.89 244.28 1284.06 244.28C1298.14 244.28 1308.92 248.12 1316.38 255.8C1324.06 263.48 1327.9 275.213 1327.9 291V383.16C1327.9 391.48 1331.96 396.707 1340.06 398.84L1342.94 399.8V403H1267.42V399.8L1271.58 398.52C1279.05 396.173 1282.78 390.947 1282.78 382.84V280.76C1282.78 267.107 1275.96 260.28 1262.3 260.28C1252.92 260.28 1242.68 264.973 1231.58 274.36V383.16C1231.58 391.48 1235.32 396.707 1242.78 398.84L1245.66 399.8V403H1170.46ZM1400.31 407.8C1387.93 407.8 1377.48 404.28 1368.95 397.24C1360.63 390.2 1356.47 380.067 1356.47 366.84C1356.47 356.813 1361.59 347.64 1371.83 339.32C1382.07 330.787 1398.17 324.387 1420.15 320.12C1423.56 319.48 1427.4 318.84 1431.67 318.2C1435.93 317.347 1440.41 316.493 1445.11 315.64V290.36C1445.11 275.853 1443.29 265.72 1439.67 259.96C1436.25 253.987 1430.81 251 1423.35 251C1418.23 251 1414.17 252.707 1411.19 256.12C1408.2 259.32 1406.28 264.973 1405.43 273.08L1404.79 276.6C1404.36 285.773 1402.12 292.493 1398.07 296.76C1394.01 301.027 1389 303.16 1383.03 303.16C1377.48 303.16 1372.89 301.453 1369.27 298.04C1365.64 294.627 1363.83 290.04 1363.83 284.28C1363.83 275.533 1366.81 268.173 1372.79 262.2C1378.97 256.227 1387.08 251.747 1397.11 248.76C1407.13 245.773 1418.01 244.28 1429.75 244.28C1448.73 244.28 1463.35 248.973 1473.59 258.36C1484.04 267.533 1489.27 282.573 1489.27 303.48V374.2C1489.27 383.8 1493.75 388.6 1502.71 388.6H1509.75L1512.63 391.16C1508.57 396.28 1504.09 400.227 1499.19 403C1494.49 405.773 1487.77 407.16 1479.03 407.16C1469.64 407.16 1462.17 405.027 1456.63 400.76C1451.29 396.28 1447.77 390.413 1446.07 383.16C1439.67 389.987 1433.05 395.853 1426.23 400.76C1419.61 405.453 1410.97 407.8 1400.31 407.8ZM1419.83 388.28C1424.09 388.28 1428.04 387.32 1431.67 385.4C1435.51 383.267 1439.99 380.067 1445.11 375.8V322.04C1442.97 322.467 1440.84 322.893 1438.71 323.32C1436.57 323.747 1434.12 324.173 1431.35 324.6C1421.53 327.16 1413.64 331.533 1407.67 337.72C1401.91 343.693 1399.03 351.8 1399.03 362.04C1399.03 370.787 1401.05 377.4 1405.11 381.88C1409.16 386.147 1414.07 388.28 1419.83 388.28Z" fill="#FFC034"/>
</svg>
